<?xml version="1.0" standalone="no"?>
<!DOCTYPE svg PUBLIC "-//W3C//DTD SVG 20010904//EN"
 "http://www.w3.org/TR/2001/REC-SVG-20010904/DTD/svg10.dtd">
<svg version="1.0" xmlns="http://www.w3.org/2000/svg"
 width="1021.000000pt" height="1021.000000pt" viewBox="0 0 1021.000000 1021.000000"
 preserveAspectRatio="xMidYMid meet">
<metadata>
Created by potrace 1.11, written by Peter Selinger 2001-2013
</metadata>
<g transform="translate(0.000000,1021.000000) scale(0.100000,-0.100000)"
fill="#000000" stroke="none">
<path d="M0 5105 l0 -5105 5105 0 5105 0 0 5105 0 5105 -5105 0 -5105 0 0
-5105z m7698 1544 c-3 -896 -5 -1023 -18 -1030 -8 -4 -32 -14 -52 -23 -76 -32
-104 -44 -150 -65 -26 -11 -58 -21 -71 -21 -13 0 -27 -4 -32 -9 -6 -5 -21 -12
-34 -16 -23 -7 -24 -6 -18 46 4 30 11 81 16 114 6 33 15 92 21 130 6 39 15 98
20 133 6 34 14 90 20 125 5 34 14 92 20 130 5 37 15 96 20 132 6 36 14 93 20
128 5 34 14 91 20 127 6 36 15 93 20 128 6 34 14 90 20 125 5 34 14 92 20 130
5 37 14 95 20 130 5 34 14 91 20 127 6 36 13 87 17 114 l6 49 -254 -7 c-256
-6 -643 -18 -1234 -36 -176 -5 -431 -13 -567 -16 -259 -7 -267 -9 -230 -50 14
-15 136 -157 292 -338 14 -16 48 -55 75 -86 42 -47 53 -68 64 -121 14 -68 27
-124 60 -256 6 -21 14 -58 20 -83 9 -42 23 -102 71 -305 11 -47 29 -123 40
-170 11 -47 29 -124 40 -172 12 -49 25 -104 30 -123 5 -19 14 -57 20 -85 6
-27 15 -66 20 -85 5 -19 13 -55 19 -80 5 -25 19 -85 31 -135 12 -49 25 -108
30 -130 24 -108 27 -101 -60 -135 -30 -12 -77 -32 -105 -44 -27 -13 -78 -34
-112 -47 -35 -13 -72 -31 -84 -40 -20 -15 -18 -17 65 -59 47 -24 83 -47 81
-51 -3 -4 -40 -26 -83 -50 -42 -23 -95 -52 -117 -64 -22 -12 -67 -37 -100 -55
-81 -44 -132 -73 -180 -100 -22 -13 -74 -41 -115 -63 -41 -22 -79 -43 -85 -47
-5 -4 -41 -24 -80 -45 -76 -41 -145 -78 -227 -124 -96 -52 -139 -74 -142 -70
-2 2 -45 73 -95 157 l-91 152 35 54 c42 63 39 60 322 248 l223 148 -31 52
c-50 85 -79 120 -92 110 -7 -5 -20 -12 -30 -15 -24 -9 -18 1 95 165 50 73 102
148 115 167 24 35 22 57 -4 46 -9 -3 -46 -10 -82 -16 -36 -6 -88 -15 -116 -19
-27 -5 -78 -14 -112 -20 -157 -26 -187 -31 -245 -41 -35 -6 -85 -15 -113 -19
-27 -4 -78 -13 -112 -19 -35 -6 -89 -15 -120 -21 -32 -5 -85 -14 -118 -19 -33
-6 -67 -11 -76 -11 -14 0 -59 63 -105 145 -6 11 -48 80 -93 154 -44 73 -81
135 -81 138 0 2 -17 30 -38 61 -83 125 -124 202 -115 215 5 6 16 28 23 47 7
19 26 63 42 98 15 34 28 65 28 67 0 2 14 34 30 70 17 36 30 68 30 70 0 5 30
75 52 122 6 11 8 26 4 31 -6 10 -107 61 -240 122 -38 17 -102 46 -142 65 -41
19 -107 51 -148 70 -40 19 -102 47 -137 63 -35 16 -72 39 -82 49 -18 21 -74
109 -110 176 -12 20 -26 36 -31 34 -13 -4 -24 -41 -25 -85 -2 -53 -16 -53
-135 4 -16 8 -34 14 -39 14 -11 0 -7 -64 33 -495 20 -215 23 -306 11 -378 -15
-91 -27 -162 -41 -257 -6 -41 -15 -100 -20 -130 -5 -30 -14 -89 -20 -130 -6
-41 -15 -100 -20 -130 -5 -30 -14 -89 -20 -130 -11 -74 -31 -182 -36 -188 -1
-2 -19 7 -40 19 -22 12 -51 29 -66 36 l-28 14 0 1265 0 1264 2560 0 2560 0 -2
-1021z m-4586 -109 c10 0 17 -6 16 -12 -2 -8 6 -12 22 -10 20 2 22 1 10 -7
-12 -8 -6 -11 23 -11 20 0 37 -4 37 -10 0 -5 9 -10 20 -10 11 0 20 -4 20 -10
0 -5 6 -10 14 -10 8 0 38 -13 67 -28 30 -15 72 -35 94 -44 32 -13 194 -87 202
-93 4 -2 -32 -93 -40 -101 -4 -4 -7 -16 -7 -26 0 -10 -4 -18 -10 -18 -5 0 -10
-9 -10 -20 0 -11 -9 -35 -20 -55 -11 -20 -20 -40 -20 -45 0 -9 -22 -60 -74
-175 -13 -27 -34 -77 -46 -110 -13 -33 -27 -64 -32 -70 -4 -5 -8 -17 -8 -27 0
-10 -4 -18 -10 -18 -5 0 -10 -7 -10 -16 0 -8 -16 -48 -35 -88 -19 -40 -35 -79
-35 -87 0 -8 -11 -36 -25 -63 -14 -27 -25 -55 -25 -63 0 -7 -4 -13 -10 -13 -5
0 -10 -9 -10 -20 0 -22 -15 -27 -27 -7 -4 6 -11 59 -15 117 -10 133 -24 305
-58 670 -16 171 -30 339 -36 425 -4 65 -3 78 7 68 7 -7 21 -13 31 -13z m3048
-270 c36 -41 67 -77 70 -80 3 -3 30 -34 60 -70 30 -36 57 -67 60 -70 3 -3 34
-39 70 -80 36 -41 67 -77 70 -80 3 -3 30 -34 60 -70 94 -111 238 -277 294
-340 43 -47 126 -150 126 -155 0 -2 -15 -10 -32 -18 -18 -8 -54 -24 -79 -35
-94 -42 -86 -46 -169 84 -86 134 -202 315 -270 424 -123 196 -200 316 -210
327 -5 7 -10 15 -10 18 0 3 -22 38 -48 78 -63 95 -122 192 -122 203 0 10 35
-27 130 -136z m100 -622 c35 -57 113 -179 172 -271 59 -92 108 -169 108 -171
0 -2 16 -27 35 -56 19 -29 33 -56 30 -60 -3 -5 -33 -24 -68 -43 -34 -19 -84
-47 -110 -62 -27 -15 -51 -24 -53 -22 -5 5 -51 191 -114 467 -5 19 -18 76 -30
125 -11 50 -25 109 -30 133 -5 24 -12 48 -15 53 -4 5 -3 9 2 9 4 0 37 -46 73
-102z m1430 -643 c0 -302 -3 -395 -14 -437 -8 -29 -24 -87 -36 -128 -11 -41
-33 -124 -49 -183 -16 -60 -33 -112 -37 -117 -7 -6 -334 147 -352 165 -4 4 96
249 139 341 42 89 8 87 -55 -3 -85 -123 -173 -244 -189 -261 -16 -15 -32 -9
-222 86 l-204 102 33 78 c62 147 66 153 156 219 69 50 216 154 296 208 12 8
22 2 43 -24 40 -49 57 -38 66 43 7 71 7 71 153 170 39 26 246 125 265 126 4 0
7 -173 7 -385z m-5000 -156 c38 -21 84 -47 102 -57 203 -115 218 -124 222
-145 3 -12 7 -69 11 -127 l5 -105 -87 90 c-146 151 -347 366 -357 382 -12 22
20 10 104 -38z m-59 -376 c-22 -113 -31 -171 -31 -201 0 -18 -4 -32 -10 -32
-11 0 -15 322 -4 333 3 3 17 -7 30 -23 22 -25 23 -33 15 -77z m698 20 c86 -47
172 -95 191 -106 19 -11 55 -31 80 -45 25 -13 71 -40 103 -58 32 -19 59 -34
61 -34 2 0 152 -83 246 -137 42 -24 303 -169 380 -211 30 -17 56 -35 58 -40 3
-10 -35 -39 -175 -138 -43 -30 -109 -76 -148 -103 -175 -124 -201 -141 -211
-141 -6 0 -60 53 -120 118 -60 64 -156 167 -214 227 -208 218 -495 527 -503
541 -5 8 -2 28 7 46 8 18 28 63 45 101 16 37 33 67 37 67 3 0 77 -39 163 -87z
m2970 -135 c12 -51 26 -113 32 -138 13 -55 24 -102 38 -156 6 -23 11 -51 11
-62 0 -44 21 -30 50 33 16 36 30 68 30 70 0 2 11 28 24 57 13 29 31 71 40 93
37 89 50 115 59 115 14 0 377 -183 377 -190 0 -4 -28 -45 -62 -92 -35 -47
-101 -138 -148 -203 -47 -64 -90 -122 -95 -129 -6 -6 -22 -27 -35 -46 -23 -34
-47 -67 -248 -340 -51 -69 -99 -134 -106 -145 -8 -11 -43 -58 -77 -105 -204
-277 -316 -432 -374 -513 l-40 -56 -1597 -1 -1598 0 0 280 0 280 420 280 c231
154 426 280 434 280 7 0 33 -21 57 -47 23 -27 113 -121 198 -211 85 -89 161
-171 168 -182 16 -23 35 -25 63 -8 10 7 21 10 24 7 5 -4 -5 -84 -24 -199 -6
-36 -16 -94 -21 -130 -6 -36 -13 -80 -16 -97 -4 -24 -1 -33 8 -33 8 0 70 41
139 91 69 49 152 108 185 131 33 23 76 54 95 68 19 15 114 82 210 150 96 68
198 140 225 160 28 21 280 201 560 400 281 200 533 380 560 400 28 20 91 65
140 100 50 35 113 80 140 100 96 70 110 79 121 80 5 0 20 -42 33 -92z m-454
53 c-14 -13 -656 -473 -895 -640 -36 -25 -109 -77 -162 -116 -314 -227 -610
-435 -620 -435 -7 0 -8 13 -3 33 3 17 10 58 14 90 4 31 12 61 17 66 9 9 439
313 574 407 84 58 137 90 255 154 44 23 139 75 210 115 72 40 162 89 200 110
39 21 101 55 138 77 38 21 70 38 71 38 1 0 47 25 101 55 100 55 117 63 100 46z
m1560 -447 l295 -147 0 -633 0 -634 -630 0 c-685 0 -645 -4 -616 56 8 16 21
45 29 64 8 19 24 56 36 82 11 26 21 50 21 53 0 2 12 30 26 62 14 32 32 72 39
88 7 17 22 51 34 77 11 26 21 50 21 53 0 2 14 34 30 70 17 36 30 68 30 70 0 2
14 34 30 70 17 36 30 68 30 70 0 2 14 34 30 70 17 36 30 68 30 70 0 2 14 34
30 70 17 36 30 68 30 70 0 3 10 27 21 53 12 26 27 61 34 77 7 17 22 51 33 76
12 25 31 70 42 100 32 79 69 159 75 159 3 0 138 -66 300 -146z m-4430 -54
c209 -8 275 -17 275 -36 0 -4 -12 -20 -26 -38 -25 -29 -60 -67 -238 -256 -188
-199 -336 -358 -361 -387 -15 -18 -31 -33 -36 -33 -11 0 -12 753 -1 764 4 5
40 5 80 2 40 -4 178 -11 307 -16z m3465 -820 c0 -6 -4 -18 -9 -28 -14 -25 -51
-111 -51 -117 0 -2 -11 -28 -24 -57 -13 -29 -43 -98 -66 -153 -24 -55 -51
-119 -62 -142 l-18 -43 -85 0 c-58 0 -85 4 -85 12 0 6 17 34 38 62 21 28 56
76 78 106 22 30 72 98 110 150 38 52 90 123 114 157 43 60 60 74 60 53z"/>
</g>
</svg>
